<?xml version="1.0" encoding="UTF-8"?>
<svg version="1.1" xmlns="http://www.w3.org/2000/svg" width="256" height="256">
<path d="M0 0 C3.28936041 0.61439293 4.41048041 1.75547821 6.70776367 4.16381836 C7.44961914 4.92629883 8.19147461 5.6887793 8.95581055 6.47436523 C9.71571289 7.28067383 10.47561523 8.08698242 11.25854492 8.91772461 C12.78136173 10.50160675 14.30601121 12.08372957 15.83276367 13.66381836 C16.50267334 14.37078857 17.17258301 15.07775879 17.86279297 15.80615234 C21.34494116 19.21862772 25.45586632 19.39542488 30.18530273 19.6496582 C37.08928457 19.38361824 40.76102942 15.43208857 45.32104492 10.60522461 C47.24935975 8.48902152 49.14888716 6.36026381 50.99975586 4.17602539 C53.15566974 1.84927309 54.92696883 0.59293793 58.07104492 0.04272461 C60.57104492 0.48022461 60.57104492 0.48022461 62.20458984 2.4543457 C64.03713207 6.51232825 63.98408448 9.93047569 63.93432617 14.33178711 C63.93507393 15.61380508 63.93507393 15.61380508 63.93583679 16.92172241 C63.93350084 18.72884446 63.92380055 20.53597003 63.90722656 22.34301758 C63.88380185 25.07525617 63.88664878 27.8065059 63.89331055 30.53881836 C63.87436674 42.7164135 63.70229475 53.64834991 57.57104492 64.48022461 C58.3212793 64.95331055 59.07151367 65.42639648 59.84448242 65.91381836 C75.98600887 76.34278948 88.66781665 88.82228765 92.98095703 108.1940918 C94.16971907 114.02183727 94.93458149 119.54246068 94.57104492 125.48022461 C95.3212793 125.62717773 96.07151367 125.77413086 96.84448242 125.92553711 C107.34373042 128.22637987 117.03184659 132.61325544 123.57104492 141.48022461 C130.6974724 153.97646518 133.72474405 165.5517399 130.88745117 179.94897461 C126.92118355 192.72002721 119.25886728 201.55350244 107.44604492 207.85522461 C98.69429125 212.17060545 89.40693459 211.77792416 79.90625 211.77075195 C78.32026861 211.77674348 76.73429013 211.78355045 75.14831543 211.79110718 C70.85671512 211.80871335 66.56519466 211.81346035 62.27356172 211.81473875 C59.58655302 211.81616424 56.89956436 211.82044142 54.21256065 211.82573318 C44.82186987 211.8442174 35.43123572 211.85240603 26.04052734 211.85083008 C17.31432763 211.84962991 8.58837575 211.87071179 -0.13776129 211.9023174 C-7.65145113 211.92855282 -15.1650604 211.9391943 -22.67879564 211.93791926 C-27.15663619 211.93741165 -31.63425645 211.94298239 -36.11205101 211.96427536 C-40.32866023 211.98378008 -44.5448418 211.9836996 -48.76146698 211.9692421 C-50.29923701 211.96716779 -51.83703467 211.97177157 -53.37475777 211.98396301 C-66.91427062 212.08425859 -78.60285751 210.02172744 -89.42895508 201.48022461 C-90.12762695 200.95557617 -90.82629883 200.43092773 -91.54614258 199.89038086 C-99.46667297 193.53901215 -104.92001667 184.56891196 -106.42895508 174.48022461 C-107.30164624 163.75014386 -107.58294625 153.21177373 -102.42895508 143.48022461 C-102.07833008 142.78155273 -101.72770508 142.08288086 -101.36645508 141.36303711 C-96.94172543 133.46612378 -90.64354609 127.34792703 -82.49145508 123.48022461 C-78.76496673 121.73197628 -78.76496673 121.73197628 -76.53442383 118.49975586 C-76.29246896 116.99750861 -76.0894559 115.48858804 -75.92114258 113.97631836 C-74.47217057 106.6279603 -68.51195692 99.55683137 -62.80004883 94.91381836 C-57.09538868 91.46470753 -50.3687518 89.6297058 -43.74145508 89.29272461 C-38.99536423 88.12858912 -36.51758169 85.14899877 -33.02661133 81.83178711 C-23.04093169 72.79211923 -10.47503904 69.43200095 2.57104492 67.48022461 C2.16112305 66.8859668 1.75120117 66.29170898 1.32885742 65.67944336 C0.7900293 64.85057617 0.25120117 64.02170898 -0.30395508 63.16772461 C-0.83762695 62.3672168 -1.37129883 61.56670898 -1.92114258 60.74194336 C-6.62504898 50.56639453 -5.76997757 38.89799822 -5.74462891 27.92578125 C-5.7414355 25.02493827 -5.76511056 22.12508512 -5.7902832 19.22436523 C-5.79255342 17.37345505 -5.79326098 15.52254215 -5.79223633 13.67163086 C-5.80144608 12.80808487 -5.81065582 11.94453888 -5.82014465 11.05482483 C-5.79318758 7.57065076 -5.71395442 5.0865022 -4.21875 1.90576172 C-2.42895508 0.48022461 -2.42895508 0.48022461 0 0 Z " fill="#D8D8D8" transform="translate(115.428955078125,28.519775390625)"/>
<path d="M0 0 C0.02578125 0.82242188 0.0515625 1.64484375 0.078125 2.4921875 C0.5670064 12.11426237 1.56859419 20.24285241 8.9375 27 C15.67872702 32.57524939 22.52666831 32.801115 31 32 C37.72236634 30.2559378 42.05714699 25.5156254 46 20 C47.43701723 17.22146084 47.43701723 17.22146084 48 15 C48.33 15 48.66 15 49 15 C49 34.8 49 54.6 49 75 C57.58 75 66.16 75 75 75 C81 80 81 80 82 82 C82.36941527 87.54122903 82.28757701 91.28780629 79 96 C74.62095384 98.67775701 71.38668081 99.36311946 66.2890625 99.29296875 C65.04511719 99.28330078 63.80117187 99.27363281 62.51953125 99.26367188 C61.23433594 99.23853516 59.94914062 99.21339844 58.625 99.1875 C56.66240234 99.16719727 56.66240234 99.16719727 54.66015625 99.14648438 C51.43968156 99.1112237 48.22005394 99.06193633 45 99 C45.4844458 98.23469971 45.9688916 97.46939941 46.46801758 96.6809082 C48.18874031 93.66971198 48.48049086 91.62385175 48.6875 88.1875 C48.790625 86.475625 48.89375 84.76375 49 83 C43.72 83 38.44 83 33 83 C33.103125 84.711875 33.20625 86.42375 33.3125 88.1875 C33.37050781 89.15042969 33.42851562 90.11335938 33.48828125 91.10546875 C33.91713082 94.53689745 33.91713082 94.53689745 37 99 C28.42 99 19.84 99 11 99 C12.32 97.35 13.64 95.7 15 94 C15.68594863 91.1214454 15.68594863 91.1214454 15.75 88.1875 C15.8325 86.475625 15.915 84.76375 16 83 C10.72 83 5.44 83 0 83 C0.0825 84.711875 0.165 86.42375 0.25 88.1875 C0.29640625 89.15042969 0.3428125 90.11335938 0.390625 91.10546875 C1.13026565 94.61876184 2.70906024 96.29198149 5 99 C-0.19193297 99.14990034 -5.38256856 99.25793417 -10.57617188 99.32958984 C-12.33746316 99.3595022 -14.0986089 99.40024866 -15.859375 99.45263672 C-28.96019413 99.83226273 -38.79381657 98.756041 -49 89.625 C-52.17177612 86.13681799 -54.20681092 82.33424849 -56 78 C-56.3400708 77.24211182 -56.6801416 76.48422363 -57.03051758 75.70336914 C-61.21321201 64.04006635 -59.0331003 46.12580067 -54 35 C-51.61128142 30.47944138 -48.84466073 26.24654692 -46 22 C-45.49726562 21.1234375 -44.99453125 20.246875 -44.4765625 19.34375 C-37.83143908 8.79593504 -24.55150188 3.07724435 -13 0 C-8.32696656 -0.94866092 -4.71003618 -0.84780651 0 0 Z " fill="#4C5762" transform="translate(120,98)"/>
<path d="M0 0 C3.28936041 0.61439293 4.41048041 1.75547821 6.70776367 4.16381836 C7.44961914 4.92629883 8.19147461 5.6887793 8.95581055 6.47436523 C10.09566406 7.68382812 10.09566406 7.68382812 11.25854492 8.91772461 C12.78136173 10.50160675 14.30601121 12.08372957 15.83276367 13.66381836 C16.83762817 14.72427368 16.83762817 14.72427368 17.86279297 15.80615234 C21.34494116 19.21862772 25.45586632 19.39542488 30.18530273 19.6496582 C37.08928457 19.38361824 40.76102942 15.43208857 45.32104492 10.60522461 C47.24935975 8.48902152 49.14888716 6.36026381 50.99975586 4.17602539 C53.15566974 1.84927309 54.92696883 0.59293793 58.07104492 0.04272461 C60.57104492 0.48022461 60.57104492 0.48022461 62.20458984 2.4543457 C64.03713207 6.51232825 63.98408448 9.93047569 63.93432617 14.33178711 C63.93507393 15.61380508 63.93507393 15.61380508 63.93583679 16.92172241 C63.93350084 18.72884446 63.92380055 20.53597003 63.90722656 22.34301758 C63.88380185 25.07525617 63.88664878 27.8065059 63.89331055 30.53881836 C63.8516341 56.28955934 63.8516341 56.28955934 57.57104492 64.48022461 C48.71781381 73.18879508 41.0051221 77.81084418 28.63354492 78.04272461 C21.2461546 77.9645273 15.6226581 76.99257729 9.57104492 72.48022461 C8.68674805 71.82538086 7.80245117 71.17053711 6.89135742 70.49584961 C-1.42484194 63.69826057 -4.17169167 56.9561242 -5.42895508 46.48022461 C-5.58620062 43.23671467 -5.61621927 39.99672957 -5.63208008 36.74975586 C-5.63778015 35.8369133 -5.64348022 34.92407074 -5.64935303 33.98356628 C-5.65875286 32.06490218 -5.66531691 30.14622229 -5.66918945 28.22753906 C-5.67895981 25.29130402 -5.71005585 22.35575082 -5.74145508 19.41967773 C-5.74797999 17.55054124 -5.75323246 15.68139978 -5.75708008 13.81225586 C-5.76942688 12.93616165 -5.78177368 12.06006744 -5.79449463 11.15742493 C-5.78158064 7.63760515 -5.72486316 5.11300623 -4.22094727 1.89697266 C-2.42895508 0.48022461 -2.42895508 0.48022461 0 0 Z " fill="#4C5661" transform="translate(115.428955078125,28.519775390625)"/>
<path d="M0 0 C2.40192906 1.06752403 4.21894027 2.18245023 6.25 3.875 C12.41297848 8.63730155 17.95885275 10.73468693 25.75 10.625 C26.53133301 10.62097168 27.31266602 10.61694336 28.11767578 10.61279297 C35.43342288 10.36156332 40.84633042 7.89396141 47 4 C48.32520503 3.31731862 49.65560128 2.64406078 51 2 C51.3972524 12.47569282 51.48432262 19.93307043 44.8125 28.25 C39.27687933 34.09635198 34.58541576 36.20123175 26.5 36.5 C18.66434069 36.21950873 13.96199877 33.97473382 8.1875 28.8125 C1.8343709 21.95170076 1.67761286 14.54495105 1.89453125 5.52734375 C1.94673828 4.27630859 1.94673828 4.27630859 2 3 C0.35 3 -1.3 3 -3 3 C-2.01 2.01 -1.02 1.02 0 0 Z " fill="#FBFBFB" transform="translate(118,95)"/>
<path d="M0 0 C3.27662794 4.06270733 3.37272746 7.81026574 3.1875 12.8125 C3.0946875 16.3703125 3.0946875 16.3703125 3 20 C-5.58 20 -14.16 20 -23 20 C-22.01294859 16.05179434 -21.65601119 15.28282442 -18.9453125 12.6171875 C-18.33042969 12.00746094 -17.71554688 11.39773437 -17.08203125 10.76953125 C-16.43621094 10.14433594 -15.79039062 9.51914062 -15.125 8.875 C-14.48691406 8.24207031 -13.84882813 7.60914063 -13.19140625 6.95703125 C-5.19214955 -0.90862617 -5.19214955 -0.90862617 0 0 Z " fill="#FC8A8E" transform="translate(176,29)"/>
<path d="M0 0 C3.51458815 0.44125603 4.62664849 1.69293599 7.08984375 4.20166016 C7.88583984 5.00474609 8.68183594 5.80783203 9.50195312 6.63525391 C10.72688477 7.90949219 10.72688477 7.90949219 11.9765625 9.20947266 C12.81251953 10.05123047 13.64847656 10.89298828 14.50976562 11.76025391 C20.6640625 18.04014868 20.6640625 18.04014868 20.6640625 20.33447266 C12.0840625 20.33447266 3.5040625 20.33447266 -5.3359375 20.33447266 C-5.3978125 17.77697266 -5.4596875 15.21947266 -5.5234375 12.58447266 C-5.55074951 11.78557617 -5.57806152 10.98667969 -5.60620117 10.16357422 C-5.64287611 7.03240243 -5.49147655 4.66075001 -4.13671875 1.81884766 C-2.3359375 0.33447266 -2.3359375 0.33447266 0 0 Z " fill="#FB8C8F" transform="translate(115.3359375,28.66552734375)"/>
<path d="M0 0 C5.28 0 10.56 0 16 0 C16.36951478 10.3464138 16.36951478 10.3464138 14.69921875 13.30078125 C12.02904545 15.97095455 9.68505608 15.93646455 6 16 C3.05244268 14.65437601 1.45722728 13.91445456 0 11 C-0.1377685 7.32984725 -0.04271961 3.67388652 0 0 Z " fill="#FCFCFC" transform="translate(153,181)"/>
<path d="M0 0 C5.28 0 10.56 0 16 0 C16.36951478 10.3464138 16.36951478 10.3464138 14.69921875 13.30078125 C12.02904545 15.97095455 9.68505608 15.93646455 6 16 C3.05244268 14.65437601 1.45722728 13.91445456 0 11 C-0.1377685 7.32984725 -0.04271961 3.67388652 0 0 Z " fill="#FCFCFC" transform="translate(120,181)"/>
<path d="M0 0 C2.9375 0.75 2.9375 0.75 4.9375 2.75 C5.40921648 6.36649298 5.35541658 8.12312512 3.3125 11.1875 C0.9375 12.75 0.9375 12.75 -2.1875 12.6875 C-5.0625 11.75 -5.0625 11.75 -7.0625 8.75 C-6.875 5.1875 -6.875 5.1875 -6.0625 1.75 C-3.0625 -0.25 -3.0625 -0.25 0 0 Z " fill="#F1F2F2" transform="translate(162.0625,65.25)"/>
<path d="M0 0 C2.9375 0.75 2.9375 0.75 4.9375 2.75 C5.40921648 6.36649298 5.35541658 8.12312512 3.3125 11.1875 C0.9375 12.75 0.9375 12.75 -2.1875 12.6875 C-5.0625 11.75 -5.0625 11.75 -7.0625 8.75 C-6.875 5.1875 -6.875 5.1875 -6.0625 1.75 C-3.0625 -0.25 -3.0625 -0.25 0 0 Z " fill="#F1F2F2" transform="translate(131.0625,65.25)"/>
</svg>
