<svg id="_0007_moving_forward" xmlns="http://www.w3.org/2000/svg" xmlns:xlink="http://www.w3.org/1999/xlink" viewBox="0 0 500 500" data-imageid="moving-forward-13" imageName="Moving Forward" class="illustrations_image" style="width: 213px;"><defs><style>.cls-1_moving-forward-13{fill:url(#linear-gradient);}.cls-1_moving-forward-13,.cls-2_moving-forward-13,.cls-3_moving-forward-13,.cls-4_moving-forward-13,.cls-5_moving-forward-13,.cls-6_moving-forward-13,.cls-7_moving-forward-13,.cls-8_moving-forward-13,.cls-9_moving-forward-13,.cls-10_moving-forward-13,.cls-11_moving-forward-13,.cls-12_moving-forward-13,.cls-13_moving-forward-13,.cls-14_moving-forward-13,.cls-15_moving-forward-13,.cls-16_moving-forward-13,.cls-17_moving-forward-13,.cls-18_moving-forward-13,.cls-19_moving-forward-13,.cls-20_moving-forward-13,.cls-21_moving-forward-13,.cls-22_moving-forward-13,.cls-23_moving-forward-13,.cls-24_moving-forward-13,.cls-25_moving-forward-13,.cls-26_moving-forward-13,.cls-27_moving-forward-13,.cls-28_moving-forward-13{stroke-width:0px;}.cls-2_moving-forward-13,.cls-17_moving-forward-13{isolation:isolate;opacity:.18;}.cls-2_moving-forward-13,.cls-28_moving-forward-13{fill:#68e1fd;}.cls-3_moving-forward-13{fill:url(#linear-gradient-11-moving-forward-13);}.cls-4_moving-forward-13{fill:url(#linear-gradient-12-moving-forward-13);}.cls-5_moving-forward-13{fill:url(#linear-gradient-13-moving-forward-13);}.cls-6_moving-forward-13{fill:url(#linear-gradient-10-moving-forward-13);}.cls-7_moving-forward-13{fill:url(#linear-gradient-17-moving-forward-13);}.cls-8_moving-forward-13{fill:url(#linear-gradient-16-moving-forward-13);}.cls-9_moving-forward-13{fill:url(#linear-gradient-19-moving-forward-13);}.cls-10_moving-forward-13{fill:url(#linear-gradient-15-moving-forward-13);}.cls-11_moving-forward-13{fill:url(#linear-gradient-23-moving-forward-13);}.cls-12_moving-forward-13{fill:url(#linear-gradient-21-moving-forward-13);}.cls-13_moving-forward-13{fill:url(#linear-gradient-18-moving-forward-13);}.cls-14_moving-forward-13{fill:url(#linear-gradient-14-moving-forward-13);}.cls-15_moving-forward-13{fill:url(#linear-gradient-22-moving-forward-13);}.cls-16_moving-forward-13{fill:url(#linear-gradient-20-moving-forward-13);}.cls-17_moving-forward-13{fill:#1d2741;}.cls-18_moving-forward-13{fill:url(#linear-gradient-4-moving-forward-13);}.cls-19_moving-forward-13{fill:url(#linear-gradient-2-moving-forward-13);}.cls-20_moving-forward-13{fill:url(#linear-gradient-3-moving-forward-13);}.cls-21_moving-forward-13{fill:url(#linear-gradient-8-moving-forward-13);}.cls-22_moving-forward-13{fill:url(#linear-gradient-9-moving-forward-13);}.cls-23_moving-forward-13{fill:url(#linear-gradient-7-moving-forward-13);}.cls-24_moving-forward-13{fill:url(#linear-gradient-5-moving-forward-13);}.cls-25_moving-forward-13{fill:url(#linear-gradient-6-moving-forward-13);}.cls-26_moving-forward-13{fill:#231f20;}.cls-27_moving-forward-13{fill:#ffb4a3;}</style><linearGradient id="linear-gradient-moving-forward-13" x1="-318.91" y1="-218.99" x2="-227.01" y2="-214.08" gradientTransform="translate(405.39 451.83)" gradientUnits="userSpaceOnUse"><stop offset="0" stop-color="#000"/><stop offset=".99" stop-color="#000" stop-opacity="0"/></linearGradient><linearGradient id="linear-gradient-2-moving-forward-13" x1="-189.3" y1="1532.69" x2="-189.81" y2="1497.89" gradientTransform="translate(408.97 1880.31) scale(1 -1)" xlink:href="#linear-gradient-moving-forward-13"/><linearGradient id="linear-gradient-3-moving-forward-13" x1="-148.93" y1="1532.09" x2="-149.44" y2="1497.29" gradientTransform="translate(409 1880.3) scale(1 -1)" xlink:href="#linear-gradient-moving-forward-13"/><linearGradient id="linear-gradient-4-moving-forward-13" x1="-7.08" y1="1530" x2="-7.59" y2="1495.21" gradientTransform="translate(409 1880.3) scale(1 -1)" xlink:href="#linear-gradient-moving-forward-13"/><linearGradient id="linear-gradient-5-moving-forward-13" x1="33.29" y1="1529.41" x2="32.78" y2="1494.61" gradientTransform="translate(409 1880.3) scale(1 -1)" xlink:href="#linear-gradient-moving-forward-13"/><linearGradient id="linear-gradient-6-moving-forward-13" x1="-288.84" y1="1680.43" x2="-198.78" y2="1675.31" gradientTransform="translate(408.97 1880.31) scale(1 -1)" gradientUnits="userSpaceOnUse"><stop offset="0" stop-color="#000"/><stop offset=".99" stop-color="#000" stop-opacity="0"/></linearGradient><linearGradient id="linear-gradient-7-moving-forward-13" x1="-163.95" y1="-166.79" x2="-164.56" y2="-102.03" xlink:href="#linear-gradient-moving-forward-13"/><linearGradient id="linear-gradient-8-moving-forward-13" x1="16.16" y1="-165.07" x2="15.54" y2="-100.32" xlink:href="#linear-gradient-moving-forward-13"/><linearGradient id="linear-gradient-9-moving-forward-13" x1="12.35" y1="-114.95" x2="17.22" y2="-74.85" xlink:href="#linear-gradient-moving-forward-13"/><linearGradient id="linear-gradient-10-moving-forward-13" x1="-165.87" y1="-113.05" x2="-165.87" y2="-76.39" xlink:href="#linear-gradient-moving-forward-13"/><linearGradient id="linear-gradient-11-moving-forward-13" x1="6.3" y1="-305.92" x2="-283.96" y2="-203.11" gradientTransform="translate(405.39 451.83)" gradientUnits="userSpaceOnUse"><stop offset="0" stop-color="#fff"/><stop offset=".09" stop-color="#fff" stop-opacity=".95"/><stop offset=".25" stop-color="#fff" stop-opacity=".83"/><stop offset=".46" stop-color="#fff" stop-opacity=".63"/><stop offset=".71" stop-color="#fff" stop-opacity=".35"/><stop offset=".99" stop-color="#fff" stop-opacity="0"/><stop offset="1" stop-color="#fff" stop-opacity="0"/></linearGradient><linearGradient id="linear-gradient-12-moving-forward-13" x1="-76.97" y1="1550.5" x2="-76.3" y2="1574.48" gradientTransform="translate(408.97 1880.31) scale(1 -1)" xlink:href="#linear-gradient-moving-forward-13"/><linearGradient id="linear-gradient-13-moving-forward-13" x1="-379.71" y1="1508.93" x2="-371.3" y2="1508.93" gradientTransform="translate(408.97 1880.31) scale(1 -1)" xlink:href="#linear-gradient-moving-forward-13"/><linearGradient id="linear-gradient-14-moving-forward-13" x1="-274.94" y1="1511.9" x2="-263.66" y2="1511.9" gradientTransform="translate(408.97 1880.31) scale(1 -1)" xlink:href="#linear-gradient-moving-forward-13"/><linearGradient id="linear-gradient-15-moving-forward-13" x1="-340.74" y1="1551.08" x2="-303.39" y2="1518.85" gradientTransform="translate(408.97 1880.31) scale(1 -1)" xlink:href="#linear-gradient-moving-forward-13"/><linearGradient id="linear-gradient-16-moving-forward-13" x1="-417.91" y1="-190.67" x2="-271.85" y2="-197.31" xlink:href="#linear-gradient-moving-forward-13"/><linearGradient id="linear-gradient-17-moving-forward-13" x1="-287.95" y1="1557.45" x2="-251.1" y2="1588.16" gradientTransform="translate(408.97 1880.31) scale(1 -1)" xlink:href="#linear-gradient-moving-forward-13"/><linearGradient id="linear-gradient-18-moving-forward-13" x1="-310.17" y1="1540.65" x2="-258.66" y2="1568.63" gradientTransform="translate(408.97 1880.31) scale(1 -1)" xlink:href="#linear-gradient-moving-forward-13"/><linearGradient id="linear-gradient-19-moving-forward-13" x1="-248.47" y1="1501.02" x2="-290.54" y2="1505.12" gradientTransform="translate(408.97 1880.31) scale(1 -1)" xlink:href="#linear-gradient-moving-forward-13"/><linearGradient id="linear-gradient-20-moving-forward-13" x1="-369.98" y1="1498.7" x2="-390.79" y2="1506.21" gradientTransform="translate(408.97 1880.31) scale(1 -1)" xlink:href="#linear-gradient-moving-forward-13"/><linearGradient id="linear-gradient-21-moving-forward-13" x1="-397.63" y1="-285.78" x2="-266.18" y2="-194.61" xlink:href="#linear-gradient-11-moving-forward-13"/><linearGradient id="linear-gradient-22-moving-forward-13" x1="-70.64" y1="1712.16" x2="-92.54" y2="1595.09" xlink:href="#linear-gradient-6-moving-forward-13"/><linearGradient id="linear-gradient-23-moving-forward-13" x1="-74.92" y1="1734.32" x2="-76.28" y2="1622.42" gradientTransform="translate(408.97 1880.31) scale(1 -1)" xlink:href="#linear-gradient-11-moving-forward-13"/></defs><g id="backfround_moving-forward-13"><path class="cls-2_moving-forward-13 targetColor" d="M111,174.91c-20.97,7.2-43.74,19.03-49.13,40.52-3.08,12.31.27,25.76-4.05,37.69-6.12,16.89-25.72,25.79-32.55,42.41-2.88,7.03-3.2,14.82-2.93,22.41.51,14.24,3.34,29.22,12.79,39.9,14.38,16.27,38.87,17.57,60.58,17.68,113.08.46,226.17-.06,339.25-1.57,26.85-.37,48.04-39.17,53.12-61.88,11.2-50.09-18.44-90.99-62.32-110.85-17.87-8.09-36.61-14.5-53.18-24.99-31.99-20.34-54.7-55.13-90.34-68.01-30.9-11.18-65.52-2.13-91.48,16.62-11,7.97-19.5,18.5-30.07,26.9-14.72,11.65-32.22,17.17-49.69,23.18Z" style="fill: rgb(104, 225, 253);"/></g><g id="shadow_moving-forward-13"><path class="cls-17_moving-forward-13" d="M21.41,381.22c-4.13.24-9,.92-10.9,4.59,5.45,5.37,13.63,6.66,21.24,7.57,41.84,4.93,84.06,5.67,126.21,6.42l126.49,2.23c26.39.47,52.95.91,78.98-3.47,16.5-2.78,32.66-7.49,49.29-9.34,15.88-1.78,31.98-.92,47.86-2.8,3.95-.47,8.08-1.21,11.18-3.68s4.68-7.31,2.39-10.57c-1.82-2.56-5.19-3.31-8.26-3.81-11.51-1.87-23.12-2.87-34.75-3.58-108.02-6.66-215.41,11.51-323.26,13.23-28.95.45-57.51,1.56-86.46,3.22Z"/></g><g id="hand_moving-forward-13"><path class="cls-27_moving-forward-13" d="M180.89,229.41c1.17-.91,4.13-1.93,5.4-2.69.61-.36,1.1-.82,1.68-1.21,1.45-1.03,3.14-1.66,4.91-1.82.29.53-1.31,1.88-1.98,2.26,2.42-.25,3.97-.5,6.42-.61.98,0,.68.78.31.94-.68.3-2.74.89-3.43,1.21,1.63-.58,3.32-.97,5.04-1.16.73.12.42.9-.08,1.08-1.78.72-3.6,1.33-5.45,1.82,1.25-.23,2.99-.75,4.24-.75.23,0,.43.18.44.41,0,0,0,0,0,0,0,.15-.07.28-.19.36-.4.26-.84.47-1.3.61l-3.28,1.21c1.04-.17,2.1-.24,3.16-.23.65.05.83.72-.79,1.27h0c-1.43.42-2.82.96-4.16,1.61-2.99,1.55-6.59,1.05-9.91.51.19-1.92-1.19-2.94-1.02-4.82Z"/><path class="cls-28_moving-forward-13 targetColor" d="M130.14,244.75s21.88.89,35.96-3.63c14.08-4.53,16.36-6.06,16.36-6.06l-.71-6.71s-25.1,4.99-33.46,3.28c-8.36-1.7-19.22,3.38-19.22,3.38l1.07,9.74Z" style="fill: rgb(104, 225, 253);"/><path class="cls-1_moving-forward-13" d="M130.14,244.75s21.88.89,35.96-3.63c14.08-4.53,16.36-6.06,16.36-6.06l-.71-6.71s-25.1,4.99-33.46,3.28c-8.36-1.7-19.22,3.38-19.22,3.38l1.07,9.74Z"/></g><g id="board_moving-forward-13"><circle class="cls-28_moving-forward-13 targetColor" cx="219.28" cy="375.71" r="6.51" style="fill: rgb(104, 225, 253);"/><path class="cls-19_moving-forward-13" d="M222.53,375.71c0,1.81-1.46,3.27-3.27,3.27-1.81,0-3.27-1.46-3.27-3.27,0-1.81,1.46-3.27,3.27-3.27h0c1.81,0,3.27,1.46,3.27,3.27Z"/><circle class="cls-28_moving-forward-13 targetColor" cx="259.66" cy="375.71" r="6.51" style="fill: rgb(104, 225, 253);"/><circle class="cls-20_moving-forward-13" cx="259.66" cy="375.71" r="3.27"/><circle class="cls-28_moving-forward-13 targetColor" cx="401.55" cy="375.71" r="6.51" style="fill: rgb(104, 225, 253);"/><circle class="cls-18_moving-forward-13" cx="401.55" cy="375.71" r="3.27"/><circle class="cls-28_moving-forward-13 targetColor" cx="441.93" cy="375.71" r="6.51" style="fill: rgb(104, 225, 253);"/><circle class="cls-24_moving-forward-13" cx="441.93" cy="375.71" r="3.27"/><path class="cls-28_moving-forward-13 targetColor" d="M479.65,139.17v153.6c0,8.41-6.82,15.22-15.22,15.22H199.92c-8.41,0-15.23-6.81-15.23-15.22l.35-161.14c0-8.41,6.82-15.23,15.23-15.23l-.35,7.56h264.48c8.41-.02,15.24,6.79,15.25,15.19h0v.02Z" style="fill: rgb(104, 225, 253);"/><path class="cls-25_moving-forward-13" d="M480.03,138.56v153.6c0,8.41-6.82,15.22-15.22,15.22H200.3c-8.41,0-15.23-6.81-15.23-15.22v-160.89c0-8.41,7.32-14.87,15.75-14.87h261.71c16.14.64,17.5,13.72,17.51,22.13v.04Z"/><rect class="cls-28_moving-forward-13 targetColor" x="194.76" y="116.39" width="272.44" height="30.96" rx="6.05" ry="6.05" style="fill: rgb(104, 225, 253);"/><path class="cls-28_moving-forward-13 targetColor" d="M479.65,139.44v153.6c0,8.41-6.82,15.23-15.23,15.23l-254.41-.28c-8.41,0-15.23-6.81-15.23-15.22v-153.32c0-8.41,6.82-15.23,15.23-15.23h0l251.14-7.82c18.5,0,18.51,14.65,18.5,23.05Z" style="fill: rgb(104, 225, 253);"/><path class="cls-28_moving-forward-13 targetColor" d="M240.91,370.82h0c-4.69,0-8.48-3.8-8.48-7.27v-43.54c0-5.93,3.81-9.74,8.48-9.74h0c4.68,0,8.48,3.8,8.48,8.48v43.54c.03,4.68-3.75,8.5-8.43,8.53h-.05Z" style="fill: rgb(104, 225, 253);"/><path class="cls-28_moving-forward-13 targetColor" d="M421.04,370.82h0c-4.68,0-8.48-3.8-8.48-8.48h0v-43.56c0-4.68,3.8-8.48,8.48-8.48h0c4.68,0,8.48,3.8,8.48,8.48v43.54c0,4.68-3.8,8.48-8.48,8.48v.02Z" style="fill: rgb(104, 225, 253);"/><path class="cls-23_moving-forward-13" d="M240.91,370.82h0c-4.69,0-8.48-3.8-8.48-7.27v-43.54c0-5.93,3.81-9.74,8.48-9.74h0c4.68,0,8.48,3.8,8.48,8.48v43.54c.03,4.68-3.75,8.5-8.43,8.53h-.05Z"/><path class="cls-21_moving-forward-13" d="M421.04,370.82h0c-4.68,0-8.48-3.8-8.48-8.48h0v-43.56c0-4.68,3.8-8.48,8.48-8.48h0c4.68,0,8.48,3.8,8.48,8.48v43.54c0,4.68-3.8,8.48-8.48,8.48v.02Z"/><path class="cls-28_moving-forward-13 targetColor" d="M265.4,371.77h-51.75c-1.11,0-2.01-.9-2.01-2.01h0c0-1.11.9-2.01,2.01-2.01h51.75c1.11,0,2.01.9,2.01,2.01h0c0,1.11-.9,2.01-2.01,2.01Z" style="fill: rgb(104, 225, 253);"/><path class="cls-28_moving-forward-13 targetColor" d="M447.61,371.77h-51.75c-1.11,0-2.01-.9-2.01-2.01h0c0-1.11.9-2.01,2.01-2.01h51.75c1.11,0,2.01.9,2.01,2.01h0c0,1.11-.9,2.01-2.01,2.01Z" style="fill: rgb(104, 225, 253);"/><path class="cls-22_moving-forward-13" d="M447.61,371.77h-51.75c-1.11,0-2.01-.9-2.01-2.01h0c0-1.11.9-2.01,2.01-2.01h51.75c1.11,0,2.01.9,2.01,2.01h0c0,1.11-.9,2.01-2.01,2.01Z"/><path class="cls-6_moving-forward-13" d="M265.4,371.77h-51.75c-1.11,0-2.01-.9-2.01-2.01h0c0-1.11.9-2.01,2.01-2.01h51.75c1.11,0,2.01.9,2.01,2.01h0c0,1.11-.9,2.01-2.01,2.01Z"/><path class="cls-28_moving-forward-13 targetColor" d="M199.66,139.61s.44-12.12,14.46-13.07h31.76s-18.33,2.91-20.09,13.07c-1.76,10.17,0,148.49,0,148.49,0,0,2.59,16.19,27.37,17h-43.17s-9.61-2.6-10.33-9.03c-.72-6.43,0-156.47,0-156.47Z" style="fill: rgb(104, 225, 253);"/><path class="cls-3_moving-forward-13" d="M195.1,124.09s-1.21-6.31,5.16-7.7h41.05s-18.33-2.47-20.09,7.7,0,164.01,0,164.01c0,0,4.31,18.63,29.08,19.45h-41.94s-11.69-.61-13.26-11.47c-.93-6.4,0-171.98,0-171.98Z"/><path class="cls-28_moving-forward-13 targetColor" d="M481.69,311.4v2.47c0,2.13-2.62,3.85-5.84,3.85H189.25c-3.22,0-5.84-1.72-5.84-3.85v-2.47c0-.13.01-.25.03-.38.28-1.95,2.78-3.47,5.81-3.47h286.6c3.03,0,5.52,1.52,5.81,3.47.02.12.03.25.03.38Z" style="fill: rgb(104, 225, 253);"/><path class="cls-4_moving-forward-13" d="M481.66,310.19c-.28,1.48-2.77,2.64-5.81,2.64H189.25c-3.03,0-5.53-1.16-5.81-2.64.28-1.48,2.78-2.64,5.81-2.64h286.6c3.03,0,5.52,1.18,5.81,2.64Z"/></g><g id="character_1_moving-forward-13"><path class="cls-27_moving-forward-13" d="M107.22,230.69s2.77-20.49,4.39-23.89,2.03-17.66,20.53-8c0,0,2.71,2.74,1.33,6.11s-1.25,5.8-.31,7.02-1.65,2.51-1.65,2.51c0,0-.61-.21-1.44,3.72-.83,3.93-8.43,3.68-8.43,3.68,0,0-4.08,2.07-3.1,8.12.98,6.06-9.43,5.45-11.33.72Z"/><path class="cls-26_moving-forward-13" d="M106.07,208.6c-.27-3.4.61-7.05,3.03-9.43.44-.37.84-.77,1.21-1.21.33-.54.59-1.12.79-1.73,1.32-2.99,3.9-5.23,7.05-6.12,3.14-.84,6.48-.51,9.39.92,1.5.72,2.87,1.69,4.42,2.28s3.4.76,4.81-.12c.26.83.09,1.74-.45,2.42l2.16-.7c.12,2.6-1.15,5.07-3.33,6.49l.84-.13c-.68,1.12-2.3,1.12-3.58.88-1.62-.3-3.21-.76-4.74-1.38-2.13-.86-4.63-2.01-6.56-.76s-1.91,4.05-2.53,6.29c-.43,1.56-1.27,2.98-2.42,4.12-.15-.78-.45-1.52-.89-2.18-.45-.67-1.25-1.02-2.05-.91-1.34.32-1.63,2.11-1.45,3.48.15,1.21.61,2.58,1.76,2.97-1.25,1.62-2.25,3.43-2.94,5.36l-.67-.21c-.15.35-.55.51-.9.37-.61-.27-1.3-3.8-1.56-4.56-.71-1.98-1.17-4.04-1.38-6.14Z"/><path class="cls-28_moving-forward-13 targetColor" d="M31.83,367.35l-2.11,1.87c-.54.45-.61,1.24-.16,1.77,0,0,0,0,0,0l.08.09,3.74,3.87c.6.59,1.56.63,2.21.08l2.08-1.82-5.83-5.87Z" style="fill: rgb(104, 225, 253);"/><path class="cls-28_moving-forward-13 targetColor" d="M134.52,365.37l-.48,3.3c-.09.91.56,1.72,1.47,1.82,0,0,0,0,0,0h.05l7,.95c1.03.17,2.02-.49,2.25-1.51l.5-3.22-10.8-1.33Z" style="fill: rgb(104, 225, 253);"/><path class="cls-5_moving-forward-13" d="M31.83,367.35l-2.11,1.87c-.54.45-.61,1.24-.16,1.77,0,0,0,0,0,0l.08.09,3.74,3.87c.6.59,1.56.63,2.21.08l2.08-1.82-5.83-5.87Z"/><path class="cls-14_moving-forward-13" d="M134.52,365.37l-.48,3.3c-.09.91.56,1.72,1.47,1.82,0,0,0,0,0,0h.05l7,.95c1.03.17,2.02-.49,2.25-1.51l.5-3.22-10.8-1.33Z"/><path class="cls-28_moving-forward-13 targetColor" d="M86.99,291.95c-2.73-.61-5.49.93-6.02,3.42-2.16,10.07-.94,32.97-11.51,39.33-10.57,6.36-31.34,23.08-36.69,29.75-1.41,1.67-1.23,4.17.4,5.63l2.02,1.89c1.55,1.39,3.77,1.74,5.68.9,10.16-4.48,41.19-18.59,46.52-26.31,6.4-9.25,29.74-44.88,29.74-46.33,0-1.13-20.34-6-30.13-8.29Z" style="fill: rgb(104, 225, 253);"/><path class="cls-10_moving-forward-13" d="M86.99,291.95c-2.73-.61-5.49.93-6.02,3.42-2.16,10.07-.94,32.97-11.51,39.33-10.57,6.36-31.34,23.08-36.69,29.75-1.41,1.67-1.23,4.17.4,5.63l2.02,1.89c1.55,1.39,3.77,1.74,5.68.9,10.16-4.48,41.19-18.59,46.52-26.31,6.4-9.25,29.74-44.88,29.74-46.33,0-1.13-20.34-6-30.13-8.29Z"/><path class="cls-28_moving-forward-13 targetColor" d="M100.28,231.18s4.89-6.45,19.35-6.39,27.3.23,30.98-.97c3.68-1.2,25.15-9,25.15-9l3.1,8.17s-19.93,11.97-29.36,13.93c-11.42,2.38-19.95,5.45-23.02,15.79-3.07,10.34-4.4,31.19-8.71,35.14-4.31,3.95-32.71,10.12-35.86,3.3s3.97-36.35,18.37-59.97Z" style="fill: rgb(104, 225, 253);"/><path class="cls-8_moving-forward-13" d="M178.85,222.98s-2.42,1.44-5.91,3.4c-6.66,3.7-17.28,9.26-23.45,10.54-11.42,2.38-19.95,5.45-23.02,15.79-2.84,9.45-4.16,27.72-7.67,33.76-.28.5-.63.95-1.04,1.35-4.3,3.93-32.71,10.12-35.86,3.3-3.15-6.82,4.01-36.3,18.4-59.97,0,0,4.89-6.45,19.35-6.39,14.45.07,27.3.23,30.98-.97s25.15-8.98,25.15-8.98l3.07,8.16Z"/><path class="cls-28_moving-forward-13 targetColor" d="M81.87,290.79s-4.16,14.58,5.95,19.55c10.11,4.97,47.91,12.23,47.91,12.23,0,0-6.61,26.92-4.43,37.56l.84,4.14c.38,1.53,1.74,2.61,3.32,2.64l8.17.42c1.44.11,2.81-.64,3.49-1.92,4.46-9.09,13.33-45.1,5.6-55.08-8.86-11.41-34.99-22.51-34.99-22.51l-35.86,2.98Z" style="fill: rgb(104, 225, 253);"/><path class="cls-7_moving-forward-13" d="M147.24,365.17l-.12.25c-.54,1.03-1.54,1.73-2.68,1.88-.27.04-.54.06-.81.04l-1.52-.08-6.66-.35c-1.58-.03-2.94-1.11-3.32-2.64l-.81-4.14c-2.17-10.66,4.43-37.56,4.43-37.56,0,0-37.8-7.27-47.91-12.23-10.12-4.96-5.95-19.55-5.95-19.55l12.99-1.07,22.86-1.89s26.12,11.1,34.98,22.51c7.68,9.87-.97,45.3-5.47,54.81Z"/><path class="cls-13_moving-forward-13" d="M147.24,364.96l-2.8,2.11-.61.46c-.6-.03-1.19-.2-1.72-.5-.82-.45-1.4-1.23-1.6-2.14l-.84-4.14c-.95-4.63,5.14-23.02,6.25-30.29,1.53-10.12-5.04-19.7-15.03-21.92-11.09-2.49-24.01-5.72-29.32-8.33-4.71-2.31-6.32-6.71-6.7-10.75l22.87-1.89s26.12,11.1,34.98,22.51c7.68,9.93-.97,45.36-5.47,54.87Z"/><path class="cls-28_moving-forward-13 targetColor" d="M135.55,370.52s-4.16,11.27-3.31,12.24,33.85,0,33.85,0c0,0,1.55-3.03-5.88-5.33s-16.09-2.92-16.09-2.92l-1.56-3.03-7-.96Z" style="fill: rgb(104, 225, 253);"/><path class="cls-28_moving-forward-13 targetColor" d="M29.64,371.09l-6.21,2.24-1.54,2.09,12.39,11.66h14.39s-1.86-5.6-7.43-5.86-7.88-6.25-7.88-6.25l-3.72-3.88Z" style="fill: rgb(104, 225, 253);"/><path class="cls-9_moving-forward-13" d="M135.55,370.52s-4.16,11.27-3.31,12.24,33.85,0,33.85,0c0,0,1.55-3.03-5.88-5.33s-16.09-2.92-16.09-2.92l-1.56-3.03-7-.96Z"/><path class="cls-16_moving-forward-13" d="M29.64,371.09l-6.21,2.24-1.54,2.09,12.39,11.66h14.39s-1.86-5.6-7.43-5.86-7.88-6.25-7.88-6.25l-3.72-3.88Z"/><path class="cls-27_moving-forward-13" d="M176.14,215.62c.75-1.28,2.14-2.05,3.03-3.22.42-.55.73-1.17,1.13-1.74.96-1.49,2.31-2.7,3.9-3.5.47.39-.54,2.23-1.02,2.82,2.18-1.11,3.52-1.91,5.75-2.92.93-.33.92.48.64.76-.53.53-2.24,1.82-2.77,2.36,1.31-1.13,2.75-2.11,4.28-2.91.71-.15.71.68.32,1.04-1.39,1.32-2.86,2.55-4.4,3.69,1.08-.67,2.52-1.78,3.71-2.25.22-.08.46.04.54.26,0,0,0,0,0,0,.04.11.03.24-.03.34-.27.4-.6.75-.98,1.05l-2.63,2.31c.91-.53,1.87-.99,2.87-1.36.61-.19,1.03.37-.28,1.47h0c-1.18.92-2.28,1.93-3.3,3.03-2.22,2.53-5.76,3.36-9.05,4.06-.48-1.8-1.16-3.49-1.69-5.31Z"/><path class="cls-12_moving-forward-13" d="M177.84,220.94l1.01,2.04c-6.66,3.7-23.2,12.66-29.36,13.93-11.42,2.38-19.95,5.45-23.02,15.79-2.84,9.45-4.16,27.72-7.67,33.76l-1.04,1.14-22.91,1.91s7.88-40.25,13.93-44.69,19.82-7.68,29.65-10.46c9.83-2.77,39.4-13.44,39.4-13.44Z"/></g><g id="arrow_moving-forward-13"><path class="cls-28_moving-forward-13 targetColor" d="M373.39,243.47v-8.97c.02-3.13-2.51-5.69-5.64-5.71h-125.77c-4.27,0-7.73-3.46-7.73-7.73h0v-12.06c0-4.27,3.46-7.73,7.73-7.73h126.24c3.13,0,5.67-2.53,5.68-5.66v-9.74c.01-3.13,2.56-5.67,5.69-5.66.89,0,1.76.21,2.56.62.11.06.21.12.31.19l37.49,28.05c2.75,1.52,3.75,4.97,2.23,7.72-.53.96-1.32,1.74-2.28,2.26l-38,29.33c-.11.09-.23.16-.36.22-2.82,1.38-6.22.21-7.59-2.61-.38-.79-.58-1.65-.58-2.53Z" style="fill: rgb(104, 225, 253);"/><path class="cls-28_moving-forward-13 targetColor" d="M373.39,243.47v-8.97c.02-3.13-2.51-5.69-5.64-5.71h-125.77c-4.27,0-7.73-3.46-7.73-7.73h0v-12.06c0-4.27,3.46-7.73,7.73-7.73h126.24c3.13,0,5.67-2.53,5.68-5.66v-9.74c.01-3.13,2.56-5.67,5.69-5.66.89,0,1.76.21,2.56.62.11.06.21.12.31.19l37.49,28.05c2.75,1.52,3.75,4.97,2.23,7.72-.53.96-1.32,1.74-2.28,2.26l-38,29.33c-.11.09-.23.16-.36.22-2.82,1.38-6.22.21-7.59-2.61-.38-.79-.58-1.65-.58-2.53Z" style="fill: rgb(104, 225, 253);"/><path class="cls-15_moving-forward-13" d="M373.39,243.47v-8.97c.02-3.13-2.51-5.69-5.64-5.71h-125.77c-4.27,0-7.73-3.46-7.73-7.73h0v-12.06c0-4.27,6.02-15.39,10.3-15.39l-2.56,7.66h126.24c3.13,0,5.67-2.53,5.68-5.66v-9.74c0-3.13,5.21-13.24,8.34-13.24.89,0-.88,7.79-.09,8.2.11.06.21.12.31.19l44.51,23.82c2.75,1.51-3.28,9.19-4.79,11.93-.53.96-1.32,1.75-2.29,2.27l-38,29.33c-.11.09-.23.16-.36.22-2.82,1.38-6.22.21-7.59-2.61-.38-.79-.58-1.65-.58-2.53Z"/><path class="cls-28_moving-forward-13 targetColor" d="M378.16,235.49v-8.97c.02-3.13-2.5-5.69-5.64-5.71h-125.77c-4.27,0-7.73-3.46-7.73-7.73h0v-12.06c0-4.27,3.46-7.73,7.73-7.73h126.24c3.13,0,5.68-2.53,5.68-5.66v-9.74c.01-3.13,2.56-5.66,5.69-5.66.89,0,1.76.21,2.56.61.11.06.21.12.31.19l37.5,28.06c2.74,1.51,3.74,4.96,2.22,7.71-.53.96-1.32,1.74-2.28,2.25l-38,29.33c-.11.09-.23.16-.36.22-2.82,1.38-6.22.21-7.59-2.61-.38-.79-.58-1.65-.58-2.53v.02Z" style="fill: rgb(104, 225, 253);"/><path class="cls-11_moving-forward-13" d="M378.16,235.49v-8.97c.02-3.13-2.5-5.69-5.64-5.71h-125.77c-4.27,0-7.73-3.46-7.73-7.73h0v-12.06c0-4.27,3.46-7.73,7.73-7.73h126.24c3.13,0,5.68-2.53,5.68-5.66v-9.74c.01-3.13,2.56-5.66,5.69-5.66.89,0,1.76.21,2.56.61.11.06.21.12.31.19l37.5,28.06c2.74,1.51,3.74,4.96,2.22,7.71-.53.96-1.32,1.74-2.28,2.25l-38,29.33c-.11.09-.23.16-.36.22-2.82,1.38-6.22.21-7.59-2.61-.38-.79-.58-1.65-.58-2.53v.02Z"/></g></svg>