<svg id="_0116_team_meeting_1" xmlns="http://www.w3.org/2000/svg" xmlns:xlink="http://www.w3.org/1999/xlink" viewBox="0 0 500 500" data-imageid="team-meeting-1-33" imageName="Team Meeting 1" class="illustrations_image" style="width: 213px;"><defs><style>.cls-1_team-meeting-1-33{fill:url(#linear-gradient);}.cls-1_team-meeting-1-33,.cls-2_team-meeting-1-33,.cls-3_team-meeting-1-33,.cls-4_team-meeting-1-33,.cls-5_team-meeting-1-33,.cls-6_team-meeting-1-33,.cls-7_team-meeting-1-33,.cls-8_team-meeting-1-33,.cls-9_team-meeting-1-33,.cls-10_team-meeting-1-33,.cls-11_team-meeting-1-33,.cls-12_team-meeting-1-33,.cls-13_team-meeting-1-33,.cls-14_team-meeting-1-33,.cls-15_team-meeting-1-33{stroke-width:0px;}.cls-2_team-meeting-1-33{isolation:isolate;opacity:.18;}.cls-2_team-meeting-1-33,.cls-15_team-meeting-1-33{fill:#68e1fd;}.cls-3_team-meeting-1-33{fill:url(#linear-gradient-4-team-meeting-1-33);}.cls-4_team-meeting-1-33{fill:url(#linear-gradient-2-team-meeting-1-33);}.cls-5_team-meeting-1-33{fill:url(#linear-gradient-3-team-meeting-1-33);}.cls-6_team-meeting-1-33{fill:url(#linear-gradient-8-team-meeting-1-33);}.cls-7_team-meeting-1-33{fill:url(#linear-gradient-9-team-meeting-1-33);}.cls-8_team-meeting-1-33{fill:url(#linear-gradient-7-team-meeting-1-33);}.cls-9_team-meeting-1-33{fill:url(#linear-gradient-5-team-meeting-1-33);}.cls-10_team-meeting-1-33{fill:url(#linear-gradient-6-team-meeting-1-33);}.cls-11_team-meeting-1-33{fill:#231f20;}.cls-12_team-meeting-1-33{fill:#c14834;}.cls-13_team-meeting-1-33{fill:#fff;}.cls-14_team-meeting-1-33{fill:#ffb4a3;}</style><linearGradient id="linear-gradient-team-meeting-1-33" x1="728.09" y1="1491.79" x2="734.07" y2="1515.89" gradientTransform="translate(-480.88 1694.39) scale(1 -1)" gradientUnits="userSpaceOnUse"><stop offset="0" stop-color="#231f20" stop-opacity="0"/><stop offset="1" stop-color="#231f20"/></linearGradient><linearGradient id="linear-gradient-2-team-meeting-1-33" x1="724.54" y1="1484.46" x2="747.04" y2="1428.37" xlink:href="#linear-gradient-team-meeting-1-33"/><linearGradient id="linear-gradient-3-team-meeting-1-33" x1="746" y1="1515.77" x2="736.6" y2="1516.48" xlink:href="#linear-gradient-team-meeting-1-33"/><linearGradient id="linear-gradient-4-team-meeting-1-33" x1="603.72" y1="1462.09" x2="574.12" y2="1409.14" xlink:href="#linear-gradient-team-meeting-1-33"/><linearGradient id="linear-gradient-5-team-meeting-1-33" x1="656.16" y1="1304.03" x2="581" y2="1400.54" xlink:href="#linear-gradient-team-meeting-1-33"/><linearGradient id="linear-gradient-6-team-meeting-1-33" x1="554.08" y1="1421.38" x2="602.76" y2="1443.29" xlink:href="#linear-gradient-team-meeting-1-33"/><linearGradient id="linear-gradient-7-team-meeting-1-33" x1="618.47" y1="1364.98" x2="533.47" y2="1426.62" xlink:href="#linear-gradient-team-meeting-1-33"/><linearGradient id="linear-gradient-8-team-meeting-1-33" x1="603.14" y1="1406.64" x2="893.57" y2="1406.64" xlink:href="#linear-gradient-team-meeting-1-33"/><linearGradient id="linear-gradient-9-team-meeting-1-33" x1="746.95" y1="1392.18" x2="750.93" y2="1459.49" xlink:href="#linear-gradient-team-meeting-1-33"/></defs><path id="background_team-meeting-1-33" class="cls-2_team-meeting-1-33 targetColor" d="M12.42,335.2c-2.66-32.16-5.05-66.03,8.59-95.27,7.72-16.55,20.07-30.39,30.48-45.41,12.53-18.03,22.35-37.86,35.35-55.58,13-17.71,30.02-33.65,51.21-39.46,43.51-11.94,88.94,21.71,133.21,13.03,19.63-3.85,36.66-15.65,55.36-22.79,19.83-7.6,42.14-9.88,62.45-3.66,20.31,6.22,38.22,21.57,45.03,41.68,7.77,22.95.81,48.54,6.51,72.09,5.79,24.04,23.88,42.93,35.82,64.59,13.59,24.8,19.17,53.2,15.96,81.3-1.68,14.33-5.84,28.76-14.73,40.16-9.69,12.41-24.13,20.14-38.6,26.34-59.63,25.39-125.88,30.82-188.85,15.46-22.43-5.54-44.42-13.7-67.46-15.2-23.24-1.53-46.31,3.81-69.47,6.45-22.38,2.56-55.54,3-75.28-9.92-21.25-13.99-23.71-51.39-25.57-73.81Z" style="fill: rgb(104, 225, 253);"/><g id="character_3_team-meeting-1-33"><path class="cls-11_team-meeting-1-33" d="M425.08,263.71c-2.07,29.17-18.61,56.9-15.17,85.95.97,8.3,3.58,16.52,2.83,24.81-.81,8.76-.25,17.59-.25,26.38-.06.77.06,1.55.36,2.26.41.65,1,1.17,1.7,1.5,2.51,1.35,5.42,1.74,8.2,1.1,2.23-14.99,3.51-30.1,3.83-45.25.1-4.8.11-9.68,1.41-14.29,1.02-3.21,2.36-6.32,3.98-9.28,4.13-8.1,8.23-16.21,12.28-24.35l4.03-8.03c1.24-2.48,2.48-4.96,3.72-7.44,2.99-6.28,5.71-12.92,5.61-19.85-.07-4.86-1.84-10.03-5.85-12.76-2.9-1.97-6.55-2.48-10.05-2.59-4.94-.25-11.76,1.23-16.63,1.84Z"/><path class="cls-11_team-meeting-1-33" d="M454.44,301.32c-.77,6.85-2.41,13.57-3.18,20.42-.55,4.96-.64,9.92-.71,14.88-.3,21.5-.1,43,.58,64.5,0,1.6,0,3.37-1,4.58-1.61,1.82-4.54,1.24-6.86.55-1.24-18.21-6.51-39.26-7.72-57.45-.69-10.36-5.64-20.76-5.32-31.13.32-9.92,9.92-17.04,13.71-26.23,1.14-2.79,5.59-12.4,10.06-8.3,3.1,2.91.87,14.34.43,18.2Z"/><path class="cls-14_team-meeting-1-33" d="M411.84,414.19c-.83.74-2.02,1.39-2.05,2.48.03.49.19.96.46,1.36.18.47.54.85.99,1.07.33.09.67.09.99,0l4.96-1.09c.81-.13,1.59-.42,2.29-.84,1.6-1.14,1.75-3.41,1.76-5.37v-3.05c0-2.01-.06-4.61-2.05-5.76-1.29-.85-3.03-.51-3.91.77-2.03,3.11-.37,7.62-3.46,10.43Z"/><path class="cls-11_team-meeting-1-33" d="M405.01,417.22c-.49.28-.86.72-1.07,1.24-.14.67.13,1.37.68,1.77.55.39,1.18.64,1.85.73,1.44.23,2.9.33,4.37.31l7.91.1c.62.08,1.24-.06,1.76-.4.41-.43.66-1,.68-1.6.16-1.18.2-2.36.1-3.55,0-.21-.08-.42-.24-.57-.17-.1-.37-.12-.56-.06-2.56.43-6.33,2.8-8.68,1-.81-.62-1.24-1.08-2.37-.92-1.6.32-3.12.98-4.44,1.94Z"/><path class="cls-14_team-meeting-1-33" d="M436.34,414.5c-.45.26-.91.69-.83,1.24s.87.87,1.51.93c2.42.25,4.87.13,7.26-.36,1.01-.15,1.97-.52,2.83-1.08,1.72-1.24,2.18-3.62,2.38-5.76.37-1.95.06-3.96-.87-5.71-1.86-2.78-5.21,2.16-5.68,3.98-.22,1.64-.91,3.18-1.98,4.43-1.29,1.18-3.14,1.44-4.61,2.32Z"/><path class="cls-11_team-meeting-1-33" d="M443.99,411.4c-.56-.36-1.04-.93-1.71-.97-.49.01-.96.18-1.35.48-2.11,1.24-4.18,2.67-6.2,4.11-.63.39-1.18.9-1.61,1.5-.45.61-.52,1.42-.19,2.1.29.44.73.76,1.24.89.99.23,2.02.23,3.01,0,4.56-.76,9.86-1.24,14.18-2.93,3.24-1.24,1.55-5.06-1.46-5.1-2-.04-3.96,1.15-5.9-.09Z"/><path class="cls-14_team-meeting-1-33" d="M458.01,205.76c1.45,2.74,2.37,5.73,2.72,8.81,0,2.85-.56,5.67-1.67,8.29-2.32,5.94-5.05,11.72-8.15,17.29.77-1.45-.42-6.2-.53-7.85-.17-2.74-.33-5.48-.48-8.24-.31-5.62-.57-11.25-.78-16.88-.1-2.67-1.84-10.9,2.17-11.97,3.35-.89,5.56,7.95,6.74,10.56Z"/><path class="cls-15_team-meeting-1-33 targetColor" d="M419.41,237.4c.43-2.95.58-5.94.46-8.92.01-2.57-.21-5.13-.67-7.65-1.08-5.14-3.94-9.92-3.72-15.21.2-5.85,4.11-10.84,7.84-15.37,1.44-1.88,3.08-3.6,4.89-5.12,1.84-1.51,4.12-2.38,6.5-2.48,4.32,0,8.97-1.34,12.48,1.18,3.51,2.52,4.74,7.17,5.41,11.47,2.75,17.82.26,36.12,2.48,54.02.86,6.93,2.48,13.77,3.09,20.73.18.77.01,1.58-.46,2.21-.46.35-1.02.54-1.6.53-10.87,1.12-21.85.66-32.58-1.36-.41-.04-.8-.2-1.1-.47-.21-.29-.34-.64-.37-1-1.81-10.62-4.42-21.98-2.63-32.55Z" style="fill: rgb(104, 225, 253);"/><path class="cls-14_team-meeting-1-33" d="M418.92,163.74c-.67.88-1.6,1.82-1.31,2.89.21.84,1.08,1.24,1.65,1.94,1.39,1.56.94,4.07,1.97,5.88.9,1.35,2.34,2.26,3.94,2.48,1.6.22,3.21.31,4.83.27,1.14-.09,2.26.3,3.09,1.08,1.24,1.44.47,4.22,2.18,5.02.44.18.92.25,1.4.21,1.86-.01,3.71-.15,5.54-.42.66-.03,1.29-.27,1.8-.68.49-.59.76-1.34.74-2.11.81-8.72-.54-17.5-3.93-25.58-.55-1.47-1.35-2.84-2.37-4.03-1.24-1.24-2.76-2.18-4.43-2.73-1.99-.74-4.08-1.16-6.2-1.24-1.79-.2-3.6.24-5.1,1.24-4.76,3.81-.19,11.01-3.81,15.78Z"/><path class="cls-12_team-meeting-1-33" d="M415.45,145.13c-.03.94.09,1.87.37,2.77.72,2.07,2.73,3.5,3.47,5.57.56-1.81,1.75-3.36,3.36-4.37.34,1.06,1.02,1.99,1.94,2.63.37.2.7.49.96.83.2.48.25,1,.16,1.51-.06,2.23,1.03,4.34,2.88,5.58.78.51,1.67.83,2.48,1.36,1.19.94,2.19,2.11,2.93,3.44,1.95,3,3.94,6.2,4.27,9.72.22,2.48-.4,5.09.33,7.44,1.07,3.16,4.19,5.14,7.5,4.78.25,3.78,2.43,7.17,5.77,8.97,3.37,1.73,7.38,1.71,10.73-.06,1.52-.74,2.75-1.96,3.5-3.47.48-1.25.67-2.59.57-3.92-.11-4.14-1.4-8.46-4.53-11.16-.41-.3-.76-.67-1.03-1.09-.56-1.05,0-2.29.53-3.39,2.3-5.6.85-12.04-3.62-16.13-.58-.42-1.07-.95-1.45-1.56-.25-.61-.37-1.26-.35-1.91-.17-4.14-.37-8.51-2.57-12.04-2.16-3.17-5.42-5.43-9.15-6.34-3.71-.88-7.53-1.19-11.32-.91-7.63.31-17.71,2.38-17.72,11.75Z"/><path class="cls-14_team-meeting-1-33" d="M410.38,212.06c-1.01.93-2.18,1.66-3.45,2.17-1.36.39-2.79.54-4.2.43-11.59-.27-23.57-3.05-32.5-10.38-1.75-1.43-3.5-3.09-5.73-3.42l2.06,4.3h-8.39c-.9-.07-1.8.08-2.63.42-.84.38-1.31,1.29-1.13,2.2.22.5.58.93,1.03,1.24,2.48,2.01,5.1,4.03,8.22,4.6,1.55.29,3.15.19,4.73.33,3.57.35,6.87,1.97,10.12,3.5,5.93,2.8,11.94,5.39,18.05,7.78,3.03,1.24,6.29,2.34,9.46,1.61,1.58-.44,3.09-1.11,4.48-2,8.68-4.96,17.5-9.99,24.32-17.28,2.65-2.84,5.09-6.2,5.22-10.15.11-3.18-1.94-6.8-5.16-7.63-3.23-.83-6.2,2.68-8.45,4.85-5.63,5.59-10,12.32-16.06,17.41Z"/></g><g id="character_2_team-meeting-1-33"><rect class="cls-15_team-meeting-1-33 targetColor" x="226.29" y="314.55" width="4.92" height="56.81" style="fill: rgb(104, 225, 253);"/><rect class="cls-15_team-meeting-1-33 targetColor" x="209.16" y="371.83" width="34.72" height="6.95" style="fill: rgb(104, 225, 253);"/><path class="cls-11_team-meeting-1-33" d="M211.22,292.66c-.58,1.34-1.05,2.73-1.38,4.16-.32,1.46.27,2.97,1.49,3.83.44.22.92.35,1.41.37,1.43.08,2.83-.49,3.8-1.55.94-1.21,1.54-2.65,1.74-4.17.7-3.6.88-7.28.53-10.93-.27-2.84-3.15-6.2-5.42-2.99-2.01,2.89-1.04,7.96-2.17,11.28Z"/><path class="cls-11_team-meeting-1-33" d="M200.89,290.08c-3.2,2.9,1.45,14.35,3.98,17.85,2.53,3.5,4.52,7.44,8.68,8.55,5.13,1.17,10.37,1.82,15.63,1.95,11.32.62,22.69.94,34.02.48,5.01-.08,10-.68,14.88-1.8,3.15-.81,6.52-2.27,7.76-5.27,1.15-2.79,0-6.12-2.1-8.26-2.24-2.04-4.95-3.49-7.89-4.23-10.33-3.21-21.26-3.45-32-3.62-5.28-.07-10.63,0-15.9-.56-3.34-.33-6.56-1.09-9.92-.86-4.45.32-13.67-7.37-17.15-4.23Z"/><path class="cls-11_team-meeting-1-33" d="M221.21,309.47c4.14,2.75,9.13,2.72,13.88,2.63l27.19-.56c3.11-.06,6.33-.15,9.18-1.65,4.81-2.48,7.81-9.46,6.29-15.46-.26-1.38-.98-2.63-2.05-3.55-1.15-.64-2.48-.87-3.78-.66-14.1.79-32.06-4.09-46.17-3.3-3.3.19-8.17,4.58-10.52,8.48-2.74,4.58,2.85,11.98,5.98,14.05Z"/><path class="cls-11_team-meeting-1-33" d="M234.64,368.65c.11,1.66.42,3.6,1.96,4.35.7.28,1.45.41,2.2.37l9.35.29c.53.07,1.07-.04,1.54-.31.39-.36.63-.86.67-1.39.79-4.18.89-8.52,1.11-12.75.66-12.83.87-25.67,1.25-38.51.17-5.91.35-11.81.65-17.71s1.38-12.43-.8-18.01c-.48-1.24-1.13-2.45-2.15-3.31-1.84-1.56-4.46-1.68-6.87-1.72-4.13-.07-8.26-.15-12.39-.22-2.14-.04-4.43-.03-6.18,1.19-2.93,2.03-2.84,6.77-.49,9.46,1.03,1.18,2.37,2.04,3.51,3.11,6.06,5.62,4.64,14.77,4.69,22.19.07,8.7.2,17.39.51,26.08.32,8.97.8,17.94,1.43,26.9Z"/><path class="cls-11_team-meeting-1-33" d="M259.88,378.89c.12,1.72.42,3.72,1.97,4.55.69.29,1.44.43,2.2.4l9.34.29c.54.08,1.09-.03,1.55-.31.38-.39.62-.91.66-1.45.67-8.98,1.35-17.9,1.64-26.92.4-12.76.63-25.53,1.09-38.28.41-11.37,3.21-25.7-3.86-35.57-.92-1.28-2.09-2.49-3.61-2.9-.58-.16-1.18-.19-1.77-.22-5.45-.24-10.93.13-16.3,1.08-1.75.31-3.84,1.02-4.17,2.77-.36,1.92,1.65,3.34,3.19,4.54,8.34,6.52,6.03,19.9,6.1,29.17.09,11.55.15,23.1.56,34.65.33,9.4.81,18.8,1.43,28.19Z"/><path class="cls-11_team-meeting-1-33" d="M199.1,236.56l-.58,23.34c-.32,12.61-.6,25.61,3.01,37.39.59,2.55,1.83,4.9,3.61,6.82,1.91,1.51,4.3,2.3,6.74,2.23,6.2.36,12.92-.73,17.37-6.09,3.93-4.68,5.41-11.72,6.07-18.47.69-9.34.76-18.71.21-28.06-.3-8.22-.74-17.01-4.69-23.57-1.84-2.84-4.09-5.39-6.66-7.59-11.42-10.67-24.57-4.18-25.07,13.99Z"/><path class="cls-15_team-meeting-1-33 targetColor" d="M216.62,205.7c-1.46.36-2.82,1.08-3.94,2.08-1.04,1.35-1.66,2.99-1.77,4.69l-7.37,45.51c-.33,2.07-.63,4.33.5,6.13,1.34,2.15,4.2,2.84,6.8,3.27,8.51,1.44,17.13,2.11,25.76,1.98.44.04.87-.07,1.24-.31.31-.34.49-.78.48-1.24.4-3.4.32-6.83-.21-10.21l-15.96-2.01c-1.38-.17-1.31,0-1.94-1.18-.27-.62-.37-1.3-.29-1.97.27-6.43-.07-13.28,2.21-19.34,4.78,14.87,2.25,30.61,2.82,45.91.17,4.49.88,4.54,5.16,4.39,3.99-.14,7.99-.34,11.97-.63,7.76-.56,15.51-1.42,23.2-2.58,1.55-.23,3.35-.66,3.96-2.1.31-.72.23-1.53.17-2.31-.63-7.27-.23-14.64,1.17-21.8.59-3.05,1.78-6.05,1.73-9.16-.04-2.8-.18-5.42.09-8.26.15-1.55,1.51-6.12.86-7.43l6.07,12.94c1.08,1.9,1.68,4.02,1.76,6.2-.1,2.65-1.76,5.23-1.15,7.83l19.6-.63-2.64-13.48c-.66-4.45-2.18-8.72-4.48-12.58l-9.58-17.92c-.71-1.53-1.67-2.93-2.85-4.13-1.16-.96-2.46-1.74-3.86-2.29-10.05-4.46-20.89-6.87-31.88-7.08-9.36-.12-19,4.8-27.64,7.73Z" style="fill: rgb(104, 225, 253);"/><path class="cls-13_team-meeting-1-33" d="M248.25,251.91c6.4-6.13,8.26-15.24,9.81-23.78l2.74-15.08c.78-3.57,1.16-7.21,1.13-10.87.02-.39-.1-.78-.35-1.09-.38-.29-.86-.41-1.34-.35-7.1,0-18.46-2.7-19.65,6.41-1.14,9.68-.41,19.48,2.13,28.89.43,1.61,5.99,15.37,5.52,15.86Z"/><path class="cls-12_team-meeting-1-33" d="M243.01,196.73c-.27,1.29-.33,2.61-.19,3.92.19.93.56,1.82,1.09,2.62,1.14,2.11,3.13,3.64,5.47,4.18,2.03.3,4.04-.63,5.95-1.59.88-.36,1.66-.92,2.28-1.64.77-1.09,1.21-2.38,1.24-3.72.08-1.78-.02-3.56-.32-5.31l-.87-6.51c-.02-.28-.1-.55-.25-.79-.16-.18-.38-.29-.62-.32-3.31-.79-7.88-2.26-11.23-1.07-3.35,1.19-2.12,6.98-2.57,10.23Z"/><path class="cls-1_team-meeting-1-33" d="M257.65,188.75s-5.52,11.16-11.06,10.18c-5.54-.98-3.14-9.4-3.14-9.4l14.2-.78Z"/><path class="cls-12_team-meeting-1-33" d="M260.03,176.77c.73-1.1,1.85-2.36,3.16-2.02,1.14.45,1.7,1.74,1.25,2.88,0,0,0,.01,0,.02-.51,1.07-1.17,2.06-1.98,2.93-2.38,3.18-2.8,7.55-5.74,10.27-2.35,1.9-5.3,2.89-8.32,2.78-1.19.07-2.39-.08-3.54-.43-2.68-.94-4.29-3.55-5.25-6.1-1.06-2.99-1.7-6.11-1.91-9.28-.35-2.81-.13-5.66.65-8.39.84-2.79,2.88-5.06,5.56-6.2,4.28-1.65,9.36.71,12.02,4.32s3.44,8.15,3.98,12.54"/><path class="cls-11_team-meeting-1-33" d="M237.72,171.66c0,.48-.26.98,0,1.41.28.44.84.61,1.31.41.46-.22.85-.56,1.12-.99,1.09-1.49,1.9-3.23,3.39-4.35,1.49-1.13,4.04-1.24,5.06.22.06.12.15.22.26.3.18.07.39.07.57,0,2.36-.58,4.84.15,6.51,1.91,1.56,1.73,2.41,3.99,2.38,6.31,0,.69.87,3.14,1.56,2.93.2-.06.26-2.06.4-2.21.48-.55.51-.72.99-1.24.14-.2.34-.36.56-.46.53-.2,1.08.22,1.65.35,1.05.12,2.03-.53,2.31-1.55.21-.97.17-1.99-.12-2.94-.29-.95-.32-1.96-.09-2.93.47-1.41,2.05-2.48,2-3.93-.04-.44-.17-.86-.38-1.24-.77-1.61-1.89-3.02-3.29-4.12-.47-1.04-1.1-1.99-1.87-2.83-.81-.86-1.96-1.32-3.14-1.24-.52.07-1.03.29-1.55.32-2.07.14-3.72-2.34-5.76-1.9-.66.15-1.24.6-1.87.71-1.18.21-2.29-.66-3.49-.63s-2.11.88-3.18,1.34-2.6.67-3.13,1.74c-.22.45-.29,1.03-.74,1.24-.37.1-.76.1-1.13,0-1.11-.12-2.2.35-2.87,1.24-1.45,2.13-2.11,4.7-1.85,7.26-.04,1.25.62,2.41,1.71,3.01.88.38,2.59.53,2.67,1.86Z"/><path class="cls-13_team-meeting-1-33" d="M249.66,205.25c-1.7.48-3.14,1.62-4.01,3.16-.81,1.51-1.41,3.12-1.79,4.79.14-.52-1.24-2.56-1.5-3.13-.5-1.14-.93-2.31-1.35-3.47-.55-1.53-2.26-4.53-1.45-6.12,1.92-3.76,8.67,3.25,10.1,4.76Z"/><path class="cls-13_team-meeting-1-33" d="M251.98,205.73c2.64,1.02,4.22,3.57,6.44,5.28.11.09.24.15.38.17.15-.01.3-.08.41-.19,1.31-1.11,2.29-2.56,2.82-4.19.6-1.6,1.41-7.84-2.07-6.35-1.3.77-2.53,1.66-3.66,2.67-1.38.96-2.82,1.83-4.32,2.6Z"/><path class="cls-15_team-meeting-1-33 targetColor" d="M248.47,227.5c-.4-4.28-.29-8.59.32-12.85.17-.82.2-1.66.07-2.48-.35-1.67-1.97-3.03-1.92-4.73.07-2.23,2.93-3.5,5.16-2.85,2.09.62,3.29,2.83,2.66,4.92-.05.17-.11.33-.18.49-.29.53-.71,1.02-.94,1.58-.33,1.25-.2,2.57.38,3.72,1.17,3.26,2.58,20.26,2.48,21.66,0,1.04-2.21,5.73-2.57,6.71-2.13,5.73-4.65,7.7-5.67,8.17-.79-7.02.87-17.23.2-24.34Z" style="fill: rgb(104, 225, 253);"/><path class="cls-4_team-meeting-1-33" d="M248.47,227.5c-.4-4.28-.29-8.59.32-12.85.17-.82.2-1.66.07-2.48-.35-1.67-1.97-3.03-1.92-4.73.07-2.23,2.93-3.5,5.16-2.85,2.09.62,3.29,2.83,2.66,4.92-.05.17-.11.33-.18.49-.29.53-.71,1.02-.94,1.58-.33,1.25-.2,2.57.38,3.72,1.17,3.26,2.58,20.26,2.48,21.66,0,1.04-2.21,5.73-2.57,6.71-2.13,5.73-4.65,7.7-5.67,8.17-.79-7.02.87-17.23.2-24.34Z"/><path class="cls-13_team-meeting-1-33" d="M241.8,259.05c.45-.08.91.07,1.24.4.11.18.17.38.17.58.21,1.88.16,3.79-.15,5.66-.04.58-.29,1.13-.69,1.55-.6.38-1.33.53-2.03.41l-2.93-.11c-.21,0-.43-.04-.62-.14-.19-.14-.34-.33-.41-.56-.73-1.7-1.53-4.81-.66-6.59s4.42-1.23,6.08-1.2Z"/><path class="cls-12_team-meeting-1-33" d="M250.23,258.97c.07.57-.25,1.11-.78,1.31,1.03.5,2.15.8,3.29.89,2.23.36,4.38,1.06,6.4,2.07,1.45.73,2.94,1.79,3.2,3.32.06.19.06.4,0,.6-.1.16-.23.3-.38.4-1.52.8-3.25,1.11-4.96.91-4.96-.09-10.2-.09-14.88-1.91-.38-.12-.72-.33-1.02-.6-.27-.31-.44-.7-.5-1.1-.41-1.96,0-3.5,1.85-4.35,2.44-1.12,5.11-1.64,7.79-1.54Z"/><path class="cls-11_team-meeting-1-33" d="M234.69,383.68c.43.86,1.06,1.61,1.84,2.18,1.96,1.9,4.23,3.45,6.71,4.59,3.14,1.24,6.64,1.24,10.03,1.15,1.24,0,2.63-.15,3.26-1.14s.1-2.27-.48-3.29c-2.31-4.03-5.37-7.8-6.4-12.29-.33-1.41-.51-2.99-1.64-3.97-2.48-2.12-8.76-1.35-10.79,1.12-.91,1.33-1.49,2.85-1.71,4.44-.43,2.06-1.67,5.15-.82,7.21Z"/><path class="cls-11_team-meeting-1-33" d="M262.28,384.57c1.17.56,2.36,1.08,3.56,1.55.31.16.68.2,1.02.11.23-.13.42-.32.55-.56l1.62-2.48c3,3.31,8.16,3.72,12.75,3.63,2.18,0,4.35-.09,6.52-.19.96,0,2.12-.25,2.48-1.12s-.45-1.61-1.15-2.13c-3.8-2.79-9.1-3.56-12.18-7.06-1.24-1.44-2.11-3.3-3.72-4.3-1.54-.76-3.25-1.11-4.96-1.02-2.78-.07-5.88-.35-6.2,2.73-.37,3.6-.46,7.22-.29,10.83Z"/><polygon class="cls-11_team-meeting-1-33" points="279.99 260.93 291.5 215.45 340.73 215.45 324.37 262.71 324 266.58 263.73 266.58 263.73 262.79 279.99 260.93"/><path class="cls-5_team-meeting-1-33" d="M261.48,178.62c.02-.09.02-.18,0-.26-.13-.4-.13-.84,0-1.24.09-.16.22-.29.38-.38.24-.15.51-.23.79-.25.08-.02.16-.02.24,0,.09.06.16.14.19.25.16.47.16.97,0,1.44-.17.54-.47,1.04-.87,1.45-.32.37-.76.6-1.24.65-.06.01-.12.01-.19,0-.05-.03-.09-.08-.11-.14-.18-.26-.18-.6,0-.86.26-.21.67-.33.81-.66Z"/></g><g id="character_1_team-meeting-1-33"><path class="cls-15_team-meeting-1-33 targetColor" d="M130.55,232.96c.59-.19,1.24-.13,1.79.17.35.33.57.77.64,1.24.45,1.74.7,3.52.76,5.31.07.78-.05,1.57-.35,2.29-.43.74-1.04,1.37-1.77,1.82-8.9,6.57-18.24,12.51-27.96,17.8-.41.22-4.13-12.4-4.19-13.64-.2-3.32.86-4.83,3.72-6.33,8.2-4.24,18.38-6.95,27.36-8.67Z" style="fill: rgb(104, 225, 253);"/><path class="cls-3_team-meeting-1-33" d="M130.55,233.06c.59-.2,1.24-.13,1.79.17.35.33.57.77.64,1.24.45,1.74.7,3.52.76,5.31.07.78-.05,1.57-.35,2.29-.44.74-1.04,1.36-1.77,1.81-8.9,6.57-18.24,12.53-27.96,17.81-.41.22-4.13-12.4-4.19-13.64-.2-3.32.86-4.83,3.72-6.33,8.2-4.25,18.38-6.95,27.36-8.67Z"/><path class="cls-11_team-meeting-1-33" d="M199.57,350.03c1.16.21,2.27.63,3.29,1.24,1.02.64,1.59,1.8,1.46,3-.37,1.92-2.82,2.48-4.76,2.59-7.73.43-15.49.06-23.15-1.1-.71-.11-1.56-.17-2.01.38s-.3.99-.46,1.49c-.53,1.67-3.08,1.77-4.37.58-1.13-1.34-1.83-3-2-4.75-1.4-6.66-3.78-13.08-7.05-19.05-.85-1.38-1.52-2.87-1.98-4.43-1.04-4.33,3.44-7.94,7.18-5.16,3.36,2.48,5.63,7.58,8.68,10.62,6.98,6.96,15.65,11.98,25.16,14.59Z"/><path class="cls-11_team-meeting-1-33" d="M155.03,398.64c-.2,1.66-.11,3.34.27,4.96.43,1.66,1.9,2.84,3.62,2.89,2.21-.2,3.25-2.78,3.82-4.96,7.95,6.49,19.26,6.91,29.41,5.32.47,0,.91-.19,1.24-.52.66-.83-.48-1.9-1.44-2.36l-16.68-7.93c-3.93-1.87-8.03-3.88-10.56-7.44-1.87-2.62-5.46-15.88-10.38-8.68-3.29,4.8.88,13.51.69,18.72Z"/><path class="cls-15_team-meeting-1-33 targetColor" d="M99.23,316.53l25.2,8.97c1.57.4,3,1.23,4.12,2.41.74,1.12,1.2,2.39,1.36,3.72,3.24,16.69,5.6,33.54,7.08,50.47,7.85,1.93,16.03,2.05,23.94.37.72-.06,1.37-.42,1.81-.99.17-.39.24-.82.2-1.24-.32-19.57-2.48-39.39-9.92-57.53-1.03-3.06-2.76-5.84-5.06-8.11-2.48-2.13-5.67-3.1-8.68-4.33-4.96-2.06-9.84-4.96-15.24-5.42-7.96-.62-15.31,4.37-20.93,10.05-1.14-.1-2.88,1.09-3.88,1.64Z" style="fill: rgb(104, 225, 253);"/><path class="cls-9_team-meeting-1-33" d="M99.03,316.34l25.2,8.96c1.57.4,3,1.24,4.12,2.41.74,1.11,1.21,2.39,1.36,3.72,3.24,16.69,5.61,33.53,7.1,50.46,7.84,1.93,16.02,2.06,23.93.38.72-.05,1.38-.41,1.81-.99.17-.39.24-.82.21-1.24-.32-19.56-2.56-39.39-9.92-57.52-1.03-3.07-2.77-5.85-5.07-8.12-2.48-2.12-5.66-3.09-8.68-4.32-4.96-2.06-9.84-4.96-15.24-5.42-7.96-.63-15.31,4.37-20.93,10.05-1.14-.14-2.87,1.1-3.88,1.64Z"/><rect class="cls-15_team-meeting-1-33 targetColor" x="74.12" y="336.17" width="4.92" height="56.81" style="fill: rgb(104, 225, 253);"/><rect class="cls-15_team-meeting-1-33 targetColor" x="57" y="393.45" width="34.72" height="6.95" style="fill: rgb(104, 225, 253);"/><path class="cls-14_team-meeting-1-33" d="M110.68,190.92c.25.74.25,1.53,0,2.27-.41.86-1.41,1.24-2.12,1.87-1.76,1.58-1.46,4.38-2.36,6.56-1.36,3-4.79,4.45-7.89,3.32-.38-.21-.81-.31-1.24-.29-.34.11-.64.34-.83.65-1.24,1.69-1.24,4.22-2.73,5.66-1.26,1.04-3.01,1.27-4.49.58-1.45-.7-2.62-1.86-3.35-3.3-2.48-4.37-1.85-9.71-1.24-14.66.61-4.95,1.24-9.63,3.1-14.07.49-1.37,1.3-2.6,2.36-3.6,1.76-1.49,4.22-1.72,6.51-1.86,2.22-.24,4.46-.13,6.65.33,6.75,1.79,6.39,10.87,7.63,16.52Z"/><path class="cls-11_team-meeting-1-33" d="M110.33,170.09c.93.5,1.55,1.43,1.66,2.48.04,1.54-.78,2.98-2.13,3.72-1.35.71-2.84,1.08-4.37,1.08-1.51,0-3.02.1-4.52.33-1.49.24-2.83,1.07-3.72,2.29-1.09,1.7-.78,3.91-.77,5.93.05.58-.07,1.16-.32,1.69-.27.54-.9.81-1.48.63-.3-.16-.55-.4-.72-.69-.47-.8-.98-1.58-1.54-2.32-.55-.74-1.41-1.19-2.33-1.24-.84.07-1.62.49-2.13,1.15-.51.57-.85,1.28-.96,2.03-.21,1.66.87,3.2,1.89,4.53-1.03,1.89-2.61,3.42-4.52,4.42-.53.32-1.13.49-1.75.48-1.08-.1-1.84-1.09-2.48-1.98l-4.56-6.72c-.82-1.04-1.37-2.27-1.6-3.57-.03-1.39.3-2.77.97-3.99.96-2.52,2.29-4.88,3.96-7,1.26-1.74,2.35-3.58,3.27-5.52.97-2,2.74-3.5,4.87-4.12,2.26-.43,4.48.78,6.74,1.24,2.26.46,4.68.2,6.97.64,3.06.65,6.8,3.06,9.56,4.5Z"/><path class="cls-13_team-meeting-1-33" d="M89.95,207.77c1.52.93,2.79,2.2,3.72,3.72,1.31,2.48.86,5.46.36,8.2-5.4-2.84-10.16-6.76-13.97-11.54-1.41-1.87-.88-5.3,2.07-5.11,2.58.14,5.88,3.35,7.81,4.73Z"/><path class="cls-15_team-meeting-1-33 targetColor" d="M92.03,217.98c1,1.08,1.86,2.28,2.58,3.56.99,1.9,10.95,33.99,11.24,35.97.2,1.88.17,3.77-.07,5.64l-2.8,30.33c0,.55-.15,1.09-.45,1.55-.34.36-.77.62-1.24.76l-19.93,7.44c-2.95,1.2-6,2.13-9.12,2.77-2.4.39-4.67,1.34-6.64,2.77-3.42,2.48-4.53,10.01-7.5,10.06-2.27-6.45,5.07-32.65,6.34-37.45,4.47-17.03-1.38-34.9-1.62-52.52-.11-2.91.14-5.83.74-8.68,1.41-6.03,5.82-12.4,11.62-15.02,1.91-.84,1.65-.94,3.63.5,1.56,1.15,3.09,2.41,4.56,3.72,3.08,2.66,5.98,5.54,8.66,8.61Z" style="fill: rgb(104, 225, 253);"/><path class="cls-10_team-meeting-1-33" d="M71.49,243.86l18.07,36.59.38,20.12s12.71-4.08,13.33-10.3c.62-6.21,1.18-19.6,1.18-19.6l-28.42-34.26-4.55,7.44Z"/><path class="cls-15_team-meeting-1-33 targetColor" d="M70.1,221.77c-.91,5.77-1.32,11.61-1.24,17.45-.03,1.35.12,2.7.45,4.01.57,1.66,1.41,3.22,2.48,4.61,6.97,10.02,14.86,19.36,23.57,27.91.74.88,1.71,1.53,2.8,1.89.76.14,1.54.14,2.31,0l31.77-4.64c1.09.15,2.09-.61,2.24-1.69.04-.28.02-.57-.07-.85l-.81-9.63c-10.19.92-20.47.27-30.46-1.92-1.1-.16-2.15-.58-3.05-1.24-.72-.75-1.25-1.65-1.58-2.64-4.49-10.48-8.92-20.97-13.45-31.43-1.24-2.98-2.62-6.44-6.2-7.22-4.08-.94-8.05,1.19-8.76,5.4Z" style="fill: rgb(104, 225, 253);"/><path class="cls-13_team-meeting-1-33" d="M135.1,262.26c1.07-.19,2.39-.26,3,.63.21.38.34.8.36,1.24.16,1.24.29,2.58.36,3.88.18,1.26,0,2.55-.51,3.72-1.94,0-3.88-.06-5.82-.19-.27,0-.54-.07-.78-.21-.17-.17-.31-.39-.38-.62-.63-1.64-2-4.96-1.35-6.7s3.7-1.55,5.12-1.76Z"/><path class="cls-14_team-meeting-1-33" d="M142.76,260.58c1.22-.86,2.57-1.51,4.01-1.92,2.15-.28,4.33.27,6.08,1.55,1.8,1.17,3.36,2.65,5.18,3.8s4.02,2.01,5.66,3.51c.23.17.39.43.43.72,0,.4-.35.68-.71.86-2.1,1.03-4.59.37-6.86-.19-1.82-.45-3.86-.79-5.46.16-1.36.81-2.17,2.48-3.72,2.96-.96.24-1.97.22-2.91-.07-2.59-.59-5.11-1.42-7.54-2.48-.37-.14-.71-.35-1-.62-1.24-1.24-.87-4.53.63-5.46.8-.39,1.63-.72,2.48-.97,1.29-.52,2.54-1.14,3.73-1.85Z"/><path class="cls-15_team-meeting-1-33 targetColor" d="M133.02,283.01c2.52-1.59,5.84-.84,7.44,1.66,9.88,11.1,18.86,22.98,26.84,35.51.24.31.4.68.47,1.07-.06.85-.52,1.63-1.24,2.08l-8.91,8.19c-.4.46-.95.75-1.55.83-.5-.07-.96-.29-1.33-.63l-23.72-18.13c-.56-.53-1.27-.87-2.03-.99-.54.01-1.07.15-1.55.4-4.06,1.77-7.69,4.39-11.71,6.28-8.87,4.16-19.02,4.47-28.81,4.29-9.61-.17-19.39-.78-28.37-4.19-1.84-.69,5.56-13.98,9.1-14.3,5.99-.55,11.85-2.05,17.37-4.44,4.28-1.86,8.36-4.34,12.89-5.59,2.87-.79,2.62-3.72,5.43-4.75,8.93-3.14,20.69-4.24,29.67-7.27Z" style="fill: rgb(104, 225, 253);"/><path class="cls-8_team-meeting-1-33" d="M133.02,283.01c2.52-1.59,5.84-.84,7.44,1.66,9.88,11.1,18.86,22.98,26.84,35.51.24.31.4.68.47,1.07-.06.85-.52,1.63-1.24,2.08l-8.91,8.19c-.4.46-.95.75-1.55.83-.5-.07-.96-.29-1.33-.63l-23.72-18.13c-.56-.53-1.27-.87-2.03-.99-.54.01-1.07.15-1.55.4-4.06,1.77-7.69,4.39-11.71,6.28-8.87,4.16-19.02,4.47-28.81,4.29-9.61-.17-19.39-.78-28.37-4.19-1.84-.69,5.56-13.98,9.1-14.3,5.99-.55,11.85-2.05,17.37-4.44,4.28-1.86,8.36-4.34,12.89-5.59,2.87-.79,2.62-3.72,5.43-4.75,8.93-3.14,20.69-4.24,29.67-7.27Z"/><path class="cls-11_team-meeting-1-33" d="M52.45,245.1c2.41,6.62,2.59,13.82,2.74,20.86l.97,45.25c-.05,1.3.14,2.59.56,3.82,1.58,3.93,6.78,4.54,11.01,4.54h34.11c3.87,0,7.94,0,11.32,1.91,3.39,1.91,5.79,6.2,4.17,9.69-1.84,4.01-7.19,4.58-11.6,4.58h-56.28c-1.5.12-3.01-.14-4.38-.76-2.48-1.36-2.96-4.56-3.24-7.34l-7.95-81.06c-.45-4.6-1.24-15.13,4.96-15.81,5.88-.56,12.04,10.07,13.59,14.33Z"/><path class="cls-14_team-meeting-1-33" d="M128.4,237.51c3.48-4.96,7.87-9.22,12.92-12.55l-.63,4.73c5.21-2.78,10.83-4.73,16.65-5.77,1.02-.17,2.36-.15,2.7.82.27.77-.33,1.54-.89,2.13-2.93,3.3-6.16,6.32-9.65,9.03-3.52,2.71-7.72,4.39-12.13,4.86-1.66.21-3.35-.11-4.83-.91-1.48-.86-2.22-2.59-1.82-4.25"/><path class="cls-13_team-meeting-1-33" d="M127.72,233.1c-.48.03-.94.18-1.34.45-.49.48-.74,1.15-.69,1.84.05,1.58.43,3.14,1.13,4.56.39,1.01,1,1.92,1.77,2.68.79.76,1.92,1.07,2.99.81,1.09-.48,1.94-1.37,2.38-2.48.13-.2.2-.44.2-.68,0-.4-.37-.67-.66-.94-1.89-1.76-.53-3.58-1.45-5.41-.92-1.82-2.68-1.04-4.33-.82Z"/></g><g id="table_team-meeting-1-33"><ellipse class="cls-15_team-meeting-1-33 targetColor" cx="267.49" cy="278.45" rx="145.21" ry="12.71" style="fill: rgb(104, 225, 253);"/><path class="cls-15_team-meeting-1-33 targetColor" d="M412.69,282.38c0,7.02-65.01,12.71-145.21,12.71s-145.21-5.68-145.21-12.71c0-.67.6-1.33,1.74-1.97,10.8,6.09,70.93,10.75,143.48,10.75s132.72-4.66,143.49-10.75c1.14.64,1.72,1.3,1.72,1.97Z" style="fill: rgb(104, 225, 253);"/><path class="cls-6_team-meeting-1-33" d="M412.69,282.38c0,7.02-65.01,12.71-145.21,12.71s-145.21-5.68-145.21-12.71c0-.67.6-1.33,1.74-1.97,10.8,6.09,70.93,10.75,143.48,10.75s132.72-4.66,143.49-10.75c1.14.64,1.72,1.3,1.72,1.97Z"/><path class="cls-15_team-meeting-1-33 targetColor" d="M410.96,280.41c-10.8,6.09-70.94,10.75-143.49,10.75s-132.72-4.66-143.48-10.75c10.8-6.08,70.93-10.74,143.48-10.74s132.68,4.66,143.49,10.74Z" style="fill: rgb(104, 225, 253);"/><path class="cls-7_team-meeting-1-33" d="M412.69,278.45c0,.67-.58,1.32-1.72,1.96-10.8,6.09-70.94,10.75-143.49,10.75s-132.72-4.66-143.48-10.75c-1.14-.64-1.74-1.29-1.74-1.96,0-7.02,65.02-12.72,145.21-12.72s145.21,5.7,145.21,12.72Z"/><rect class="cls-15_team-meeting-1-33 targetColor" x="239.78" y="393.45" width="34.72" height="6.95" style="fill: rgb(104, 225, 253);"/><rect class="cls-15_team-meeting-1-33 targetColor" x="253.47" y="291.67" width="6.83" height="105.85" style="fill: rgb(104, 225, 253);"/></g></svg>